<?xml version="1.0" encoding="utf-8"?>
<!-- Svg Vector Icons : http://www.onlinewebfonts.com/icon -->
<!DOCTYPE svg PUBLIC "-//W3C//DTD SVG 1.1//EN" "http://www.w3.org/Graphics/SVG/1.1/DTD/svg11.dtd">
<svg version="1.1" xmlns="http://www.w3.org/2000/svg" xmlns:xlink="http://www.w3.org/1999/xlink" x="0px" y="0px" viewBox="0 0 1000 1000" enable-background="new 0 0 1000 1000" xml:space="preserve">
<metadata> Svg Vector Icons : http://www.onlinewebfonts.com/icon </metadata>
<g><g><g><g><g><path d="M549,885.5l-7.8-4.5l4.1-1.1c3.2-0.9,5.2-3.7,5.2-6.8c0-0.6-0.1-1-0.1-1.3l-2.8-10.5c-0.8-3.1-3.7-5.2-6.8-5.2c-0.2,0-0.9,0-1.8,0.2l0,0l-27.5,7.4l-14.3-8.2l14.3-8.3l27.6,7.4c0.6,0.2,1.3,0.2,1.8,0.2c3.1,0,5.9-2,6.8-5.2l2.6-10c0.2-0.7,0.3-1.3,0.2-1.8c0-3.2-2-5.9-5.2-6.8l-4.1-1l7.8-4.5c2.3-1.3,3.6-3.7,3.5-6.1c0-1.2-0.2-2.3-0.9-3.5l-5.2-8.9c-1.3-2.3-3.7-3.5-6-3.5c-1.1,0-2.5,0.2-3.9,1.1l-7.5,4.3l1.1-4.1c0.1-0.8,0.2-1.3,0.2-1.8c0-3.1-1.9-5.9-5.3-6.8l-9.9-2.7c-0.4-0.1-1.1-0.2-1.8-0.2c-3.1,0-6,2-6.8,5.4l-7.4,27.4l-14.2,8.2v-15.2l20.2-20.2c1.4-1.5,2-3.2,2-4.9c0-1.8-0.6-3.5-2-4.9l-7.3-7.3c-1.3-1.3-3.2-2-5-2c-1.8,0-3.7,0.6-5.1,2.2l-2.8,2.8v-10.3c-0.1-3.9-3.1-7-7.1-7h-10.3c-3.9,0.1-6.9,3.1-7.1,7v10.3l-3-3c-1.3-1.3-3.1-2-4.9-2c-1.8,0-3.7,0.6-5.1,2.2l-7.2,7.1c-1.3,1.4-2,3.1-2,4.9c0,1.1,0.2,2.2,0.8,3.2c-1.3-1.9-3.5-3.2-5.9-3.2c-0.4,0-1.1,0-2.3,0.4l-9.3,2.5c-3.2,0.8-5.2,3.7-5.2,6.8c-0.1,0.4,0.1,1.3,0.3,2.2l1,3.7l-8.9-5.1c-1-0.6-2.3-1-3.5-1c-2.3,0-4.8,1.2-6.1,3.6l-5.2,8.8c-0.6,1.1-0.9,2.3-0.9,3.5c0,2.4,1.2,4.8,3.5,6.1l9,5.2l-4.1,1.1c-3.2,0.8-5.2,3.7-5.2,6.8c0,0.4,0,1.1,0.2,1.9l2.7,9.8c0.8,3.1,3.6,5.1,6.8,5.2c0.6,0,1.1-0.1,1.3-0.1l28-7.5l13.3,7.6l-13.3,7.6l-27.5-7.4c-0.4-0.1-1-0.2-1.8-0.2c-3.2,0-6,2-6.8,5.3l-2.7,9.8c-0.1,0.5-0.2,1.1-0.2,1.8c-0.1,3,2,5.9,5.2,6.8l4.1,1.1l-8.9,5.1c-2.3,1.3-3.5,3.7-3.5,6.1c0,1,0.3,2.3,0.9,3.5l5.2,8.9c1.3,2.3,3.7,3.5,6.1,3.5c1.2,0,2.4-0.3,3.3-0.8l9.2-5.3l-1.1,4.1c-0.1,0.4-0.2,1-0.2,1.8c-0.1,3,2,5.9,5.1,6.8l10,2.7c0.8,0.2,1.4,0.2,1.8,0.2c3.1,0,6-2,6.8-5.1l7.3-27.6l13.2-7.6v16.5l-20.2,20.1c-1.3,1.4-2.1,3.2-2.1,5c0,1.7,0.7,3.5,2,4.9l7.3,7.3c1.3,1.4,3.1,2.1,4.9,2.1c1.8,0,3.6-0.7,4.9-2l3-3.1v9c0.1,4,3.1,7,7.1,7H478c3.9,0,7-3.1,7.1-7v-9l3,3c1.3,1.4,3.2,2.1,4.9,2.1c1.9,0,3.6-0.7,4.9-2l7.3-7.3c1.4-1.5,2-3.2,2-4.9c0-1.8-0.6-3.5-2-4.9l-20.2-20.2v-16.5l14.2,8.3l7.4,27.5c0.9,3.2,3.7,5.2,6.8,5.2c0.6,0,1.1-0.1,1.3-0.1l10.5-2.8c3.2-0.9,5.2-3.8,5.2-6.8c0-0.6-0.1-1.1-0.2-1.5l-1.2-4.4l7.8,4.5c1.1,0.7,2.4,1,3.5,1c2.5,0,4.7-1.3,6-3.5l5.2-9c0.6-1.1,1-2.3,0.9-3.5C552.6,889.2,551.4,886.8,549,885.5L549,885.5z M460.7,834.5l-13.2-7.6l-7.3-27.6c-0.1-0.5-0.3-0.9-0.5-1.4c0.2,0.4,0.5,0.7,0.9,1l20.2,20.2V834.5z"/></g><path d="M384.1,620.2c0-1.4-0.4-2.9-1.1-4.3l-10.1-17.5c-1.6-2.7-4.5-4.3-7.5-4.3c-1.4,0-3,0.3-4.4,1.3L335,610.3l5.3-19.9c0.2-0.8,0.3-1.5,0.3-2.2c0-3.8-2.5-7.3-6.4-8.4l-19.5-5.2c-0.7-0.1-1.4-0.3-2.2-0.3c-3.9,0-7.3,2.6-8.3,6.4l-15,56.2l-37.6,21.7v-40.9l41.1-41.2c1.8-1.7,2.6-3.9,2.6-6.1c0-2.2-0.8-4.5-2.6-6.1L278.3,550c-1.6-1.7-3.9-2.6-6-2.6c-2.2,0-4.5,0.8-6.2,2.7l-14.6,14.5V532c0-4.7-3.9-8.6-8.7-8.6h-20.2c-4.7,0-8.6,3.9-8.6,8.6v32.6L199.3,550c-1.7-1.7-3.9-2.6-6.1-2.6c-2.2,0-4.5,0.9-6.2,2.7l-14.2,14.2c-1.7,1.7-2.5,3.9-2.5,6.1c0,2.2,0.8,4.4,2.5,6.1l41.1,41.2v40.9l-35.5-20.4l-15-56.2c-1-3.9-4.4-6.4-8.4-6.4c-0.6,0-1.6,0-2.7,0.4l-19.1,5.1c-3.8,1.1-6.4,4.5-6.4,8.4c0,0.6,0.1,1.6,0.4,2.5l5.2,19.8l-28.3-16.3c-1.3-0.8-2.8-1.2-4.3-1.2c-2.9,0-5.9,1.5-7.5,4.4l-10,17.4c-0.8,1.4-1.1,2.8-1.1,4.3c-0.1,3,1.5,5.9,4.3,7.5l28.3,16.3l-20,5.4c-3.9,1.1-6.4,4.5-6.4,8.4c0,0.7,0.1,1.5,0.4,2.6l5.2,19.2c1.1,3.9,4.5,6.4,8.3,6.4c0.8,0,1.5-0.1,2.1-0.2l56.3-15.1l35.5,20.4l-35.5,20.5l-56.2-15c-0.7-0.2-1.5-0.3-2.3-0.3c-3.7,0-7.2,2.5-8.3,6.4l-5.2,19.5c-0.1,0.6-0.2,1.4-0.2,2.2c-0.1,3.8,2.5,7.2,6.3,8.3l20,5.4l-28.3,16.3c-2.8,1.6-4.3,4.5-4.3,7.5c-0.1,1.4,0.3,2.9,1.1,4.3l10,17.4c1.6,2.8,4.6,4.3,7.5,4.3c1.5,0,2.9-0.4,4.2-1.1l28.4-16.4l-5.4,20c-0.2,0.6-0.3,1.4-0.3,2.2c0,3.9,2.6,7.2,6.4,8.3l19.6,5.2c0.8,0.2,1.6,0.3,2.2,0.3c3.9,0,7.2-2.5,8.4-6.3l15-56.2l35.5-20.5v43.5l-41.1,41.1c-1.7,1.7-2.5,3.9-2.5,6.1c0,2.2,0.8,4.4,2.5,6l14.4,14.4c1.6,1.7,3.9,2.6,6.1,2.5c2.2,0,4.4-0.9,6-2.5l14.6-14.6l0.1,30.1c0,4.8,3.8,8.6,8.6,8.6h20.2c4.8,0,8.7-3.8,8.7-8.6v-30.1l14.6,14.6c1.6,1.7,3.9,2.5,6.1,2.5c2.2,0,4.4-0.9,6-2.4l14.3-14.4c1.8-1.6,2.6-3.9,2.6-6.1c0-2.2-0.8-4.4-2.6-6.1L251.4,767v-43.5l37.6,21.8l15,56.1c1.1,3.9,4.5,6.4,8.3,6.4c0.8,0,1.4-0.2,2-0.2l19.8-5.3c3.9-1.1,6.4-4.6,6.4-8.4c0-0.8-0.1-1.4-0.3-2.1l-5.3-20.1l26,15c1.4,0.8,3,1.2,4.3,1.2c3,0,5.8-1.6,7.5-4.3l10.1-17.6c0.8-1.4,1.1-2.9,1.1-4.3c0-2.9-1.5-5.9-4.3-7.5l-26.1-15l20-5.3c3.9-1.1,6.4-4.6,6.4-8.4c0-0.8-0.1-1.5-0.3-2.1l-5.1-19.7c-1-3.9-4.5-6.4-8.3-6.4c-0.6,0-1.5,0.1-2.5,0.4l-55.9,14.9L270.1,691l37.6-21.7l56.2,15.1c0.8,0.2,1.6,0.2,2.2,0.2c3.9,0,7.2-2.5,8.3-6.4l5.2-19.6c0.2-0.8,0.3-1.5,0.3-2.2c0-3.9-2.5-7.3-6.3-8.4l-20-5.4l26.1-15C382.6,626.1,384.1,623.2,384.1,620.2z"/><path d="M850.9,739.2l20-5.3c3.9-1.1,6.4-4.6,6.4-8.4c0-0.8-0.1-1.4-0.2-2.1l-5.2-19.7c-1.1-3.9-4.5-6.4-8.3-6.4c-0.7,0-1.5,0.1-2.5,0.4l-55.9,14.9L767.5,691l37.6-21.7l56.1,15.1c0.8,0.2,1.6,0.2,2.3,0.2c3.8,0,7.2-2.5,8.3-6.4l5.2-19.6c0.2-0.8,0.2-1.5,0.2-2.2c0-3.9-2.5-7.3-6.3-8.4l-20-5.4l26.1-15c2.8-1.6,4.3-4.6,4.3-7.5c0-1.4-0.4-2.9-1.1-4.3l-10.1-17.5c-1.6-2.7-4.5-4.3-7.5-4.3c-1.4,0-3,0.3-4.5,1.3l-25.9,14.9l5.4-19.9c0.2-0.8,0.2-1.5,0.2-2.2c0-3.8-2.5-7.3-6.4-8.4l-19.4-5.2c-0.7-0.1-1.5-0.3-2.3-0.3c-3.8,0-7.3,2.6-8.3,6.4l-15,56.2l-37.6,21.7v-40.9l41.1-41.2c1.7-1.7,2.5-3.9,2.5-6.1c0-2.2-0.8-4.5-2.5-6.1L775.6,550c-1.7-1.7-3.9-2.6-6.1-2.6c-2.2,0-4.4,0.8-6.1,2.7l-14.6,14.5V532c0-4.7-3.8-8.6-8.6-8.6h-20.2c-4.7,0-8.5,3.9-8.5,8.6v32.6L696.7,550c-1.6-1.7-3.9-2.6-6.1-2.6c-2.2,0-4.5,0.9-6.1,2.7l-14.3,14.2c-1.7,1.7-2.5,3.9-2.5,6.1s0.8,4.4,2.5,6.1l41.1,41.2v40.9l-35.5-20.4l-15-56.2c-1.1-3.9-4.5-6.4-8.3-6.4c-0.7,0-1.6,0-2.7,0.4l-19.1,5.1c-3.8,1.1-6.4,4.5-6.4,8.4c0,0.6,0.1,1.6,0.4,2.5l5.3,19.8l-28.3-16.3c-1.3-0.8-2.8-1.2-4.3-1.2c-2.9,0-5.9,1.5-7.5,4.4l-10.1,17.4c-0.7,1.4-1.1,2.8-1.1,4.3c-0.1,3,1.5,5.9,4.3,7.5l28.3,16.3l-20,5.4c-3.9,1.1-6.3,4.5-6.4,8.4c0,0.7,0.1,1.5,0.4,2.6l5.1,19.2c1.1,3.9,4.5,6.4,8.4,6.4c0.7,0,1.4-0.1,2-0.2l56.4-15.1l35.5,20.4l-35.5,20.5l-56.2-15c-0.6-0.2-1.4-0.3-2.2-0.3c-3.9,0-7.3,2.5-8.4,6.4l-5.1,19.5c-0.3,0.6-0.3,1.4-0.3,2.2c-0.1,3.8,2.5,7.2,6.3,8.3l20,5.4L583,754.3c-2.7,1.6-4.3,4.5-4.3,7.5c-0.1,1.4,0.3,2.9,1.1,4.3l10.1,17.4c1.6,2.8,4.5,4.3,7.5,4.3c1.5,0,3-0.4,4.2-1.1l28.4-16.4l-5.4,20c-0.2,0.6-0.3,1.4-0.3,2.2c0,3.9,2.6,7.2,6.4,8.3l19.5,5.2c0.9,0.2,1.6,0.3,2.3,0.3c3.8,0,7.2-2.5,8.4-6.3l15-56.2l35.4-20.5V767l-41.1,41.1c-1.7,1.7-2.5,3.9-2.5,6.1c0,2.2,0.8,4.4,2.5,6l14.3,14.4c1.7,1.7,3.9,2.6,6.1,2.5c2.2,0,4.5-0.9,6.1-2.5l14.6-14.6v30.1c0.1,4.8,3.8,8.6,8.6,8.6h20.2c4.8,0,8.5-3.8,8.6-8.6v-30.1l14.6,14.6c1.7,1.7,3.9,2.6,6.1,2.5c2.2,0,4.5-0.9,6.1-2.5l14.3-14.4c1.7-1.6,2.5-3.9,2.5-6.1c0-2.2-0.8-4.4-2.6-6.1L748.8,767v-43.5l37.6,21.8l15,56.1c1.1,3.9,4.5,6.4,8.4,6.4c0.7,0,1.4-0.2,2-0.2l19.8-5.3c3.9-1.1,6.4-4.6,6.4-8.4c0-0.8-0.1-1.5-0.2-2.1l-5.4-20.1l26.1,15c1.3,0.8,2.9,1.2,4.3,1.2c3,0,5.8-1.6,7.4-4.3l10.2-17.6c0.8-1.5,1.1-2.9,1.1-4.3c0-2.9-1.6-5.9-4.3-7.5L850.9,739.2z"/><path d="M809.1,280.4C791.6,154.8,684.7,58.1,554.7,56.6c-0.6,0-1.8-0.2-3.1-0.2c-114.5,0-211.4,73.9-246.2,176.6c-62.9,15-114.2,59.3-138.8,117.8C79.3,355.6,10,427.6,10,516.1c0,51.3,23.3,97,59.8,127.3c0.1-0.2,0.2-0.5,0.2-0.6c-6.4-5.8-10.2-14-10.2-22.7c0-5.2,1.4-10.4,4.2-15l9.9-17.2c5.2-9.3,15.2-15.1,26-15.1c3.3,0,6.6,0.6,9.6,1.6c3.9-6.6,10.4-11.8,18.2-13.8l18.6-5c2.3-0.8,4.8-1.2,7.3-1.3c1.1-1.9,2.5-3.5,4-5L172,535c5.2-5.5,13.1-8.8,21.2-8.9c2.8-13.6,14.8-24,29.3-24.1h20.3c14.5,0.1,26.7,10.4,29.4,24.1c7.8,0.1,15.5,3.2,21.1,8.7l14.3,14.3c1.2,1.2,2.3,2.4,3.2,3.8c0.6,0,1,0,1.6,0c2.6,0,5.2,0.4,7.8,1l19.5,5.2c8,2.1,14.6,7.5,18.5,14.5c2.3-0.6,4.7-0.9,7.2-0.9c10.7,0,20.6,5.7,26,14.9l10.1,17.5c2.7,4.7,4,9.8,4,15c0.1,7.8-3,15.3-8.4,20.8c2.8,4.6,4.3,9.8,4.3,15.4c0,2.6-0.2,5.1-0.9,7.6l-4.8,17.7h173.2l-4.2-15.7c-0.8-2.7-1.2-5.6-1.2-8.4c0-5.5,1.4-10.6,4-15c-6.4-5.8-10.2-14-10.2-22.7c-0.1-4.8,1.3-10.1,4-14.8l10.1-17.5c5.1-9.2,15.1-15,26-15c3.3,0,6.6,0.6,9.8,1.6c3.9-6.7,10.3-11.8,18.1-13.9l18.6-5c2.3-0.8,4.7-1.2,7.3-1.3c1.1-1.8,2.5-3.5,4-5l14.3-14.2c5.2-5.5,13-8.8,21.2-8.9c2.7-13.6,14.9-24,29.3-24.1h20.3c14.6,0.1,26.7,10.4,29.4,24.1c7.9,0.1,15.4,3.1,21.1,8.7l14.3,14.3c1.2,1.2,2.3,2.4,3.3,3.8c0.5,0,1,0,1.6,0c2.5,0,5.2,0.4,7.7,1l19.5,5.2c8.1,2.1,14.6,7.5,18.5,14.5c2.3-0.6,4.7-0.9,7.2-0.9c10.6,0,20.6,5.7,26,15l10.1,17.5c2.7,4.7,4,9.9,4,15c0,7.8-3,15.3-8.3,20.8c1.6,2.6,2.6,5.4,3.3,8.4c55.5-35.8,92.2-98,92.2-169C989.9,376.2,910.7,290.7,809.1,280.4z"/></g></g></g><g></g><g></g><g></g><g></g><g></g><g></g><g></g><g></g><g></g><g></g><g></g><g></g><g></g><g></g><g></g></g>
</svg>